Dirty Harry 1971 BluRay 1080p ac3 x264 SpaceHD

Encoded for HD-Space.org by Tequila-Bob a.k.a. bobnjeff
Source - NTSC BluRay Disc
 
http://www.imdb.com/title/tt0066999/

Release Date:23 December 1971 (USA)

Genres:Action | Crime | Thriller 

Rated: R (Restricted) 

Storyline
In the year 1971, San Francisco faces the terror of a maniac known as Scorpio- who snipes at innocent victims and demands ransom through notes left at the scene of the crime. Inspector Harry Callahan (known as Dirty Harry by his peers through his reputation handling of homicidal cases) is assigned to the case along with his newest partner Inspector Chico Gonzalez to track down Scorpio and stop him. Using humiliation and cat and mouse type of games against Callahan, Scorpio is put to the test with the cop with a dirty attitude. 


Cast
Cast overview, first billed only: 
  Clint Eastwood  ...  Police Inspector Harry Callahan  
  Harry Guardino  ...  Police Lt. Al Bressler  
  Reni Santoni  ...  Police Inspector Chico Gonzalez  
  John Vernon  ...  The Mayor  
  Andrew Robinson  ...  Charles 'Scorpio Killer' Davis (as Andy Robinson)  
  John Larch  ...  The Chief  
  John Mitchum  ...  Police Inspector Frank DiGiorgio  
  Mae Mercer  ...  Mrs. Russell  
  Lyn Edgington  ...  Norma  
  Ruth Kobart  ...  Bus Driver  
  Woodrow Parfrey  ...  Mr. Jaffe  
  Josef Sommer  ...  Dist. Atty. William T. Rothko  
  William Paterson  ...  Judge Bannerman  
  James Nolan  ...  Liquor Store Owner  
  Maurice Argent  ...  Sid Kleinman (as Maurice S. Argent)[/color] 





 Format                           : Matroska
File size                        : 8.08 GiB
Duration                         : 1h 42mn
Overall bit rate                 : 11.3 Mbps
Encoded date                     : UTC 2010-10-07 22:31:16
Writing application              : mkvmerge v4.3.0 ('Escape from the Island')

Bit rate                         : 10.5 Mbps
Width                            : 1 920 pixels
Height                           : 800 pixels
Display aspect ratio             : 2.40:1
Frame rate                       : 23.976 fps
Color space                      : YUV
Chroma subsampling               : 4:2:0
Bit depth                        : 8 bits
Scan type                        : Progressive
Bits/(Pixel*Frame)               : 0.284
Stream size                      : 7.46 GiB (92%)

Audio
Language                         : English
Format                           : AC-3
Format/Info                      : Audio Coding 3
Mode extension                   : CM (complete main)
Codec ID                         : A_AC3
Duration                         : 1h 42mn
Bit rate mode                    : Constant
Bit rate                         : 640 Kbps
Channel(s)                       : 6 channels
Channel positions                : Front: L C R, Side: L R, LFE
Sampling rate                    : 48.0 KHz
Stream size                      : 469 MiB (6%)

Subtitles                        : English, French, German, Italian, Spanish, Norwegian
                                   Dutch,  Portuguese,  Danish, Finnish, Swedish, Japanese

Menu                             : Chapters 30
 
http://photobucket.com/dirty_harry_SpaceHD_tequila_bob  

